<svg width="70" height="70" viewBox="0 0 70 70" fill="none" xmlns="http://www.w3.org/2000/svg">
<path d="M27.6671 12.5379H26.7228V11.5936C26.7228 11.027 26.2636 10.5676 25.6969 10.5676C25.1302 10.5676 24.6709 11.027 24.6709 11.5936V12.5379H23.7266C23.1599 12.5379 22.7007 12.9973 22.7007 13.5638C22.7007 14.1304 23.1599 14.5898 23.7266 14.5898H24.6709V15.5342C24.6709 16.1008 25.1302 16.5601 25.6969 16.5601C26.2636 16.5601 26.7228 16.1008 26.7228 15.5342V14.5898H27.6671C28.2338 14.5898 28.6931 14.1304 28.6931 13.5638C28.6931 12.9973 28.2338 12.5379 27.6671 12.5379Z" fill="white"/>
<path d="M46.2721 12.5379H45.3278V11.5936C45.3278 11.027 44.8686 10.5676 44.3019 10.5676C43.7352 10.5676 43.2759 11.027 43.2759 11.5936V12.5379H42.3316C41.7649 12.5379 41.3057 12.9973 41.3057 13.5638C41.3057 14.1304 41.7649 14.5898 42.3316 14.5898H43.2759V15.5342C43.2759 16.1008 43.7352 16.5601 44.3019 16.5601C44.8686 16.5601 45.3278 16.1008 45.3278 15.5342V14.5898H46.2721C46.8388 14.5898 47.2981 14.1304 47.2981 13.5638C47.2981 12.9973 46.8388 12.5379 46.2721 12.5379Z" fill="white"/>
<path d="M27.6671 26.6295H26.7228V25.6851C26.7228 25.1186 26.2636 24.6592 25.6969 24.6592C25.1302 24.6592 24.6709 25.1186 24.6709 25.6851V26.6295H23.7266C23.1599 26.6295 22.7007 27.0888 22.7007 27.6554C22.7007 28.222 23.1599 28.6814 23.7266 28.6814H24.6709V29.6257C24.6709 30.1922 25.1302 30.6516 25.6969 30.6516C26.2636 30.6516 26.7228 30.1922 26.7228 29.6257V28.6814H27.6671C28.2338 28.6814 28.6931 28.222 28.6931 27.6554C28.6931 27.0888 28.2338 26.6295 27.6671 26.6295Z" fill="white"/>
<path d="M46.2721 26.6295H45.3278V25.6851C45.3278 25.1186 44.8686 24.6592 44.3019 24.6592C43.7352 24.6592 43.2759 25.1186 43.2759 25.6851V26.6295H42.3316C41.7649 26.6295 41.3057 27.0888 41.3057 27.6554C41.3057 28.222 41.7649 28.6814 42.3316 28.6814H43.2759V29.6257C43.2759 30.1922 43.7352 30.6516 44.3019 30.6516C44.8686 30.6516 45.3278 30.1922 45.3278 29.6257V28.6814H46.2721C46.8388 28.6814 47.2981 28.222 47.2981 27.6554C47.2981 27.0888 46.8388 26.6295 46.2721 26.6295Z" fill="white"/>
<path d="M63.4559 29.0518H49.879C48.7192 29.0518 47.7756 29.9953 47.7756 31.1551V33.9327C47.7756 35.0924 48.7191 36.0359 49.879 36.0359H50.0763V40.68C49.163 39.9606 48.0124 39.5297 46.7623 39.5297H22.9674C21.7173 39.5297 20.5667 39.9605 19.6536 40.68V36.026H20.1207C21.2805 36.026 22.2241 35.0825 22.2241 33.9227V31.1451C22.2241 29.9853 21.2807 29.0418 20.1207 29.0418H6.54385C5.38406 29.0418 4.44043 29.9853 4.44043 31.1451V33.9227C4.44043 35.0825 5.38393 36.026 6.54385 36.026H7.01102V49.1205C7.01102 51.2153 8.62444 52.9395 10.6739 53.1182V55.1644C10.6739 56.7895 11.9961 58.1116 13.6211 58.1116H15.9721V67.9481H14.5032C13.9365 67.9481 13.4773 68.4075 13.4773 68.974C13.4773 69.5406 13.9365 70 14.5032 70H24.7544C25.3211 70 25.7803 69.5406 25.7803 68.974C25.7803 68.4075 25.3211 67.9481 24.7544 67.9481H23.2855V58.1116H46.4445V67.9481H44.9756C44.4089 67.9481 43.9496 68.4075 43.9496 68.974C43.9496 69.5406 44.4089 70 44.9756 70H55.2269C55.7936 70 56.2528 69.5406 56.2528 68.974C56.2528 68.4075 55.7936 67.9481 55.2269 67.9481H53.7578V58.1116H56.109C57.734 58.1116 59.0561 56.7895 59.0561 55.1644V53.1182C61.1055 52.9396 62.7189 51.2153 62.7189 49.1205V36.0359H63.4561C64.6159 36.0359 65.5595 35.0924 65.5595 33.9327V31.1551C65.5593 29.9954 64.6158 29.0518 63.4559 29.0518ZM22.9674 41.5818H46.7625C48.5899 41.5818 50.0764 43.0684 50.0764 44.8957V51.0826H19.6534V44.8957C19.6534 43.0684 21.1401 41.5818 22.9674 41.5818ZM6.54385 33.9741C6.51555 33.9741 6.49244 33.951 6.49244 33.9227V31.1451C6.49244 31.1168 6.51555 31.0937 6.54385 31.0937H20.1207C20.149 31.0937 20.1721 31.1168 20.1721 31.1451V33.9227C20.1721 33.951 20.149 33.9741 20.1207 33.9741H6.54385ZM11.025 51.0827C9.94309 51.0826 9.0629 50.2024 9.0629 49.1206V36.0261H17.6015V51.0827H11.025ZM21.2335 67.9481H18.0241V58.1117H21.2335V67.9481ZM51.7057 67.9481H48.4963V58.1117H51.7057V67.9481ZM57.0039 55.1644C57.0039 55.6581 56.6024 56.0597 56.1088 56.0597H13.6211C13.1274 56.0597 12.7257 55.6581 12.7257 55.1644V53.1344H57.0039V55.1644ZM60.6668 49.1206C60.6668 50.2025 59.7866 51.0826 58.7047 51.0826H52.1283V36.0361H60.6668V49.1206ZM63.5074 33.9328C63.5074 33.9611 63.4843 33.9842 63.456 33.9842H49.8791C49.8508 33.9842 49.8277 33.9611 49.8277 33.9328V31.1552C49.8277 31.1269 49.8508 31.1038 49.8791 31.1038H63.456C63.4843 31.1038 63.5074 31.1269 63.5074 31.1552V33.9328Z" fill="white"/>
<path d="M57.6955 8.45511C57.6958 3.793 53.9028 0 49.2407 0H20.4864C15.8241 0 12.0312 3.793 12.0312 8.45511V25.269C12.0314 25.8357 12.4906 26.2949 13.0573 26.2949C13.624 26.2949 14.0833 25.8355 14.0833 25.269V8.45511C14.0833 4.92435 16.9557 2.05188 20.4864 2.05188H49.2406C52.7712 2.05188 55.6437 4.92435 55.6437 8.4599L55.7231 25.2737C55.7258 25.8387 56.1845 26.2949 56.7489 26.2949C56.7505 26.2949 56.7522 26.2949 56.7538 26.2949C57.3205 26.2922 57.7777 25.8307 57.775 25.264L57.6955 8.45511Z" fill="white"/>
</svg>
